<svg xmlns="http://www.w3.org/2000/svg" viewBox="0 0 386.76 141.55">
  <defs>
    <style>
      .a {
        font-size: 23.4px;
        fill: #959595;
        font-family: OpenSans-CondensedBold, Open Sans Condensed;
        font-weight: 700;
        letter-spacing: 0.05em;
      }

      .b {
        fill: #04090e;
      }

      .c {
        fill: #f3971b;
      }
    </style>
  </defs>
  <title>Weitblick Logo</title>
  <text class="a" x="340.5" y="134.79" text-anchor="end">Bildungschancen weltweit!</text>
  <g>
    <path class="b" d="M75.37,50.94l-2.75.25c-1.45.12-2.37,1.14-2.76,3.08L59.35,100.8H47.92l-8.77-38H38.9l-8.51,38H18.62L7.11,51.53l-4.76-.25V44h20.7v6.92l-2.76.25c-1.72.17-2.59.91-2.59,2.22a3.72,3.72,0,0,0,.09.77l7.26,33h.33l8.68-38.6H44.83l9,38.77H54L61.1,51.62l-4.51-.34V44H75.37Z" transform="translate(-2.35 -2.35)"/>
    <path class="b" d="M95.82,56.57q6.25,0,9.93,3.12t3.67,8.75a13.53,13.53,0,0,1-1.58,6.62,13.07,13.07,0,0,1-3.93,4.48,20.56,20.56,0,0,1-5.67,2.65,43.07,43.07,0,0,1-12.6,1.7,11.4,11.4,0,0,0,2.75,7.3Q90.9,94,96.07,94a17.52,17.52,0,0,0,10.35-3.76l3.17,6.92a19.58,19.58,0,0,1-5.63,3.16,23.84,23.84,0,0,1-9.06,1.62q-10.19,0-14.94-5.76T75.21,80.31q0-10.08,5.42-16.91T95.82,56.57ZM92,76.08a13.32,13.32,0,0,0,5.64-2.48A5.59,5.59,0,0,0,100.24,69q0-5.21-5-5.21a8.09,8.09,0,0,0-7.17,3.8,17.73,17.73,0,0,0-2.76,9.09A42.37,42.37,0,0,0,92,76.08Z" transform="translate(-2.35 -2.35)"/>
    <path class="b" d="M129.87,57.85V93.71l4.75.26v6.83H114.76V94.31l2.76-.26a2.44,2.44,0,0,0,2.42-2.73V67.59a3.09,3.09,0,0,0-.46-2,2.13,2.13,0,0,0-1.63-.51l-2.92-.17V57.85Zm-10.52-7.38A6.07,6.07,0,0,1,117.6,46a6.33,6.33,0,0,1,1.75-4.56,6,6,0,0,1,4.59-1.84,6.2,6.2,0,0,1,4.64,1.84A6.28,6.28,0,0,1,130.37,46a6,6,0,0,1-1.79,4.49,6.41,6.41,0,0,1-4.64,1.75A6.24,6.24,0,0,1,119.35,50.47Z" transform="translate(-2.35 -2.35)"/>
    <path class="b" d="M146.89,48.8h5.43v9.05h11.1L162.58,65H152.32V87.48q0,3.76,1.33,5.25a5.25,5.25,0,0,0,4.13,1.49,10.47,10.47,0,0,0,5.64-1.79l2.5,6.58A20.47,20.47,0,0,1,149,101a11.42,11.42,0,0,1-3.84-2.17,7.74,7.74,0,0,1-1.92-3.5,18.09,18.09,0,0,1-.75-3.63c-.06-.89-.08-2.18-.08-3.89V65h-5.93l.84-6.23a8.06,8.06,0,0,0,5.92-2.86A25.23,25.23,0,0,0,146.89,48.8Z" transform="translate(-2.35 -2.35)"/>
    <path class="b" d="M171.68,98.24v-49c0-1.31-.7-2-2.09-2L166.67,47V39.92h14.69V60.16q3.75-3.58,10.1-3.59,7.84,0,12.43,5.42t4.59,15.24q0,24.69-20.19,24.68a42.2,42.2,0,0,1-9.14-1.07A27.22,27.22,0,0,1,171.68,98.24Zm9.68-27.67V92.69a15.21,15.21,0,0,0,7.34,1.71q9.53,0,9.52-15.8,0-14.43-9.35-14.43A8.23,8.23,0,0,0,183.61,66,5.65,5.65,0,0,0,181.36,70.57Z" transform="translate(-2.35 -2.35)"/>
    <path class="b" d="M227.43,39.92V93.71l4.75.26v6.83H212.32V94.31l2.76-.26a2.43,2.43,0,0,0,2.41-2.73V49.23c0-1.25-.69-1.94-2.08-2L212.49,47V39.92Z" transform="translate(-2.35 -2.35)"/>
    <path class="b" d="M252.3,57.85V93.71l4.75.26v6.83H237.19V94.31l2.76-.26a2.44,2.44,0,0,0,2.42-2.73V67.59a3.09,3.09,0,0,0-.46-2,2.13,2.13,0,0,0-1.63-.51l-2.92-.17V57.85Zm-10.52-7.38A6.07,6.07,0,0,1,240,46a6.33,6.33,0,0,1,1.75-4.56,6,6,0,0,1,4.59-1.84A6.16,6.16,0,0,1,251,41.42,6.24,6.24,0,0,1,252.8,46a6,6,0,0,1-1.8,4.49,6.37,6.37,0,0,1-4.63,1.75A6.24,6.24,0,0,1,241.78,50.47Z" transform="translate(-2.35 -2.35)"/>
    <path class="b" d="M273.49,90.13a8.72,8.72,0,0,0,7.72,4,16.59,16.59,0,0,0,10-3.67L294.78,97q-5.94,5-14.86,5t-14.06-5.77q-5.13-5.76-5.13-17t5.88-17a18.61,18.61,0,0,1,13.27-5.68,28,28,0,0,1,13.73,3.5v11.1l-7.68.6v-4.1c0-1.54-.54-2.49-1.63-2.86a10.37,10.37,0,0,0-3.38-.55q-10.1,0-10.1,14.6Q270.82,86.12,273.49,90.13Z" transform="translate(-2.35 -2.35)"/>
    <path class="b" d="M304.87,91.24V49.65a2.82,2.82,0,0,0-.46-1.87,2.3,2.3,0,0,0-1.62-.6L299.86,47V39.92h14.86v37a15.85,15.85,0,0,0,8-2.9,12.39,12.39,0,0,0,4.68-6.49,5.41,5.41,0,0,0,.25-1.37c0-1-.53-1.45-1.59-1.45l-3.17-.17V57.85h17.27v6.92l-4,.17a20,20,0,0,1-7.35,13.74l8.18,15,5.09.26v6.83H329.91L320.4,83a47.25,47.25,0,0,1-5.68,1.2v9.47h.08l4.76.26v6.83H299.7V94.31l2.75-.26a3.23,3.23,0,0,0,1.84-.72A2.87,2.87,0,0,0,304.87,91.24Z" transform="translate(-2.35 -2.35)"/>
  </g>
  <path class="c" d="M362.86,2.35A26.25,26.25,0,1,0,389.11,28.6,26.24,26.24,0,0,0,362.86,2.35ZM373.12,39h0a1.42,1.42,0,0,1-1.95-.52,1.41,1.41,0,0,1-.14-1.11l.27-.92a3.31,3.31,0,1,0-6.08.83,3.37,3.37,0,0,0,2,1.54l.9.21a1.52,1.52,0,0,1,.9.68,1.44,1.44,0,0,1-.53,2l0,0a47.17,47.17,0,0,1-8.32,3.19,46.41,46.41,0,0,0-3.19-8.32l0,0a1.45,1.45,0,0,0-2.66.37l-.21.89a3.27,3.27,0,0,1-1.54,2,3.31,3.31,0,1,1-3.31-5.74,3.27,3.27,0,0,1,2.49-.33l.92.27a1.44,1.44,0,0,0,1.63-2.1v0a45.44,45.44,0,0,0-5.64-7,45.17,45.17,0,0,0,8.31-3.19l0,0a1.44,1.44,0,0,0-.38-2.65l-.89-.22a3.27,3.27,0,0,1-2-1.54A3.31,3.31,0,0,1,359.39,14a3.27,3.27,0,0,1,.34,2.49l-.27.91a1.4,1.4,0,0,0,.13,1.11,1.43,1.43,0,0,0,2,.53h0a45.25,45.25,0,0,0,7-5.64,44.29,44.29,0,0,1,5.64,7v0a1.43,1.43,0,0,1-.52,1.95,1.45,1.45,0,0,1-1.11.14l-.92-.27a3.31,3.31,0,1,0,.82,6.07,3.27,3.27,0,0,0,1.54-2l.22-.89a1.43,1.43,0,0,1,.68-.9,1.44,1.44,0,0,1,2,.53l0,0a46.7,46.7,0,0,1,3.19,8.32A44.72,44.72,0,0,1,373.12,39Z" transform="translate(-2.35 -2.35)"/>
</svg>
