<svg class="icon" width="70" height="70" x="{{x}}" y="{{y}}" xmlns="http://www.w3.org/2000/svg" viewBox="0 0 70 70"><title>people</title><path class="path" d="M2.28,56.88a12.12,12.12,0,0,1,12-12.22A11.63,11.63,0,0,1,19.75,46m31.06,0a11.63,11.63,0,0,1,5.47-1.35,12.12,12.12,0,0,1,12,12.22m-51.86,0a19,19,0,0,1,18.86-19.2,19,19,0,0,1,18.86,19.2M7,31.68a5.9,5.9,0,1,0,5.9-6A6,6,0,0,0,7,31.68Zm56.58,0a5.9,5.9,0,1,1-5.9-6A6,6,0,0,1,63.57,31.68ZM44.71,23.27a9.43,9.43,0,1,1-9.43-9.6A9.52,9.52,0,0,1,44.71,23.27Z"/></svg>