<?xml version="1.0" encoding="utf-8"?>
<svg class="icon" version="1.1" id="Standard" xmlns="http://www.w3.org/2000/svg" xmlns:xlink="http://www.w3.org/1999/xlink" x="0px" y="0px"
	 viewBox="0 0 70 70" style="enable-background:new 0 0 70 70;" xml:space="preserve">
<path class="path" d="M28.2,63.9c5-1.4,10.1-3.3,14.9-5.7l0.1,0c1.2-0.7,1.7-2.3,0.9-3.5c-0.4-0.6-1-1-1.6-1.2L40.8,53c-1.5-0.4-2.7-1.3-3.6-2.7
	c-1.6-2.8-0.7-6.5,2.2-8.1c2.8-1.6,6.5-0.7,8.1,2.2c0.8,1.4,1,3,0.6,4.5l-0.5,1.6c-0.2,0.6-0.1,1.4,0.2,2c0.7,1.2,2.3,1.6,3.5,0.9
	l0,0c4.5-3,8.7-6.4,12.5-10.1c-1.4-5-3.3-10.1-5.7-14.9l0-0.1c-0.7-1.2-2.3-1.7-3.5-0.9c-0.6,0.4-1.1,1-1.2,1.6L53,30.6
	c-0.4,1.5-1.3,2.7-2.7,3.6c-2.8,1.6-6.5,0.7-8.1-2.2c-1.6-2.8-0.7-6.5,2.2-8.1c1.4-0.8,3-1,4.5-0.6l1.6,0.5c0.6,0.2,1.4,0.1,2-0.2
	c1.2-0.7,1.6-2.3,0.9-3.5l0,0c-3-4.5-6.4-8.7-10.1-12.5c-3.7,3.7-7.9,7.1-12.5,10.1l0,0c-1.2,0.7-2.8,0.3-3.5-0.9
	c-0.4-0.6-0.4-1.3-0.2-2l0.5-1.6c0.4-1.5,0.2-3-0.6-4.5c-1.6-2.8-5.3-3.8-8.1-2.2c-2.8,1.6-3.8,5.3-2.2,8.1c0.8,1.4,2.1,2.4,3.6,2.7
	l1.6,0.4c0.6,0.2,1.2,0.6,1.6,1.2c0.7,1.2,0.3,2.8-0.9,3.5l-0.1,0c-6.3,3.1-11.5,4.8-14.9,5.7c3.7,3.7,7.1,7.9,10.1,12.5l0,0
	c0.7,1.2,0.3,2.8-0.9,3.5c-0.6,0.4-1.3,0.4-2,0.2L13,43.9c-1.5-0.4-3-0.2-4.5,0.6c-2.8,1.6-3.8,5.3-2.2,8.1c1.6,2.8,5.3,3.8,8.1,2.2
	c1.4-0.8,2.4-2.1,2.7-3.6l0.4-1.6c0.2-0.7,0.6-1.2,1.2-1.6c1.2-0.7,2.8-0.3,3.5,0.9l0,0.1C24.8,53.8,26.8,58.9,28.2,63.9z"/>
</svg>
