<?xml version="1.0" encoding="utf-8"?>
<svg class="icon" version="1.1" id="Standard" xmlns="http://www.w3.org/2000/svg" xmlns:xlink="http://www.w3.org/1999/xlink" x="0px" y="0px"
	 viewBox="0 0 595.3 595.3" style="enable-background:new 0 0 595.3 595.3;" xml:space="preserve">
<path class="path" d="M265.8,482c31.5-8.7,63.8-21,94.1-36.1l0.4-0.2c7.8-4.5,10.5-14.5,6-22.4c-2.3-4-6.1-6.6-10.2-7.7l-10.1-2.5
	c-9.2-2.5-17.4-8.5-22.5-17.4c-10.4-17.9-4.2-40.9,13.7-51.2c18-10.4,40.9-4.2,51.3,13.7c5.1,8.9,6.2,19,3.8,28.2l-3.1,10.4
	c-1.2,4.1-0.7,8.6,1.5,12.6c4.5,7.8,14.4,10.4,22.1,5.9l0.3-0.2c28.8-19,55.3-40.4,78.9-63.8c-8.7-31.5-21-63.8-36.2-94.1l-0.2-0.4
	c-4.5-7.8-14.5-10.5-22.4-6c-4,2.3-6.7,6.1-7.7,10.2l-2.5,10.1c-2.5,9.2-8.5,17.4-17.4,22.5c-17.9,10.4-40.9,4.2-51.2-13.7
	c-10.4-17.9-4.2-40.9,13.7-51.2c8.9-5.1,19-6.2,28.2-3.8l10.4,3.1c4.1,1.2,8.6,0.7,12.6-1.5c7.8-4.5,10.4-14.4,5.9-22.1l-0.2-0.3
	c-19-28.8-40.4-55.3-63.8-78.9c-23.6,23.3-50.1,44.8-78.9,63.7l-0.3,0.2c-7.8,4.5-17.7,1.8-22.2-5.9c-2.3-4-2.7-8.5-1.5-12.6
	l3.1-10.4c2.4-9.2,1.3-19.3-3.8-28.2c-10.4-17.9-33.3-24.1-51.3-13.7c-17.9,10.4-24.1,33.3-13.7,51.2c5.1,8.9,13.4,14.9,22.5,17.4
	l10.1,2.4c4.1,1,7.9,3.7,10.2,7.7c4.5,7.8,1.8,17.8-6,22.4l-0.4,0.2c-39.8,19.8-73,30.3-94.1,36.1c23.3,23.5,44.8,50,63.8,78.9
	l0.2,0.3c4.5,7.8,1.8,17.7-5.9,22.1c-4,2.3-8.5,2.7-12.6,1.5l-10.4-3.1c-9.2-2.4-19.3-1.3-28.2,3.8c-18,10.4-24.1,33.3-13.7,51.2
	c10.4,17.9,33.3,24.1,51.2,13.7c8.9-5.1,14.9-13.3,17.4-22.5l2.4-10.1c1-4.2,3.7-7.9,7.7-10.2c7.8-4.5,17.8-1.8,22.4,6l0.2,0.4
	C244.8,418.2,257.2,450.5,265.8,482z"/>
</svg>
