{% load static %}

<svg class="puzzle-svg" id="{{ id }}" xmlns="http://www.w3.org/2000/svg" viewBox="0 0 323.6 323.6">
	<defs>
		<pattern id="puzzle-background" patternUnits="userSpaceOnUse" width="323.6" height="323.6">
			<image xlink:href="{% get_media_prefix %}{{ background }}" x="0" y="0" width="323.6" height="323.6" />
		</pattern>
	</defs>

	<a href="{{ link }}">
		{% if type == 'up' %}
		<path class="puzzle-path" d="M164.4,30.45c0,7.8,3.51,18.46,8.52,28.33a10.15,10.15,0,0,1-9.12,14.67H73.53v90.27a10.15,10.15,0,0,1-14.67,9.12c-9.87-5-20.54-8.51-28.33-8.51-19,0-29.25,15-29.25,33.55s10.25,33.54,29.25,33.54c7.8,0,18.47-3.24,28.34-8a10.14,10.14,0,0,1,14.66,9V322H163.8a10.15,10.15,0,0,0,9.12-14.67c-5-9.87-8.52-20.53-8.52-28.33,0-19,15-29.25,33.55-29.25S231.5,260,231.5,279c0,7.8-3.24,18.47-8.05,28.34a10.14,10.14,0,0,0,9,14.66H322.1v-89.6a10.14,10.14,0,0,0-14.66-9c-9.87,4.8-20.54,8-28.34,8-19,0-29.25-15-29.25-33.54s10.25-33.55,29.25-33.55c7.79,0,18.46,3.5,28.33,8.51a10.15,10.15,0,0,0,14.67-9.12V73.45H232.49a10.14,10.14,0,0,1-9-14.66c4.81-9.87,8.05-20.54,8.05-28.34,0-19-15-29.25-33.55-29.25S164.4,11.45,164.4,30.45"/>
		{% elif type == 'down' %}
		<path class="puzzle-path" d="M73.53,1.47v0Zm159,0a10.14,10.14,0,0,0-9,14.66c4.81,9.87,8,20.54,8,28.34,0,19-15,29.25-33.54,29.25s-33.55-10.24-33.55-29.25c0-7.79,3.5-18.46,8.51-28.33A10.15,10.15,0,0,0,163.8,1.47H73.53V91.08a10.14,10.14,0,0,1-14.66,9C49,95.31,38.33,92.07,30.53,92.07c-19,0-29.24,15-29.24,33.55s10.24,33.55,29.24,33.55c7.8,0,18.46-3.51,28.33-8.52a10.15,10.15,0,0,1,14.67,9.12V250H163.8a10.15,10.15,0,0,1,9.12,14.67c-5,9.87-8.51,20.54-8.51,28.33,0,19,15,29.25,33.55,29.25S231.5,312.05,231.5,293c0-7.8-3.23-18.47-8-28.34a10.14,10.14,0,0,1,9-14.66h89.6V159.78a10.16,10.16,0,0,0-14.67-9.13c-9.87,5-20.53,8.52-28.33,8.52-19,0-29.24-15-29.24-33.55S260.1,92.07,279.1,92.07c7.8,0,18.47,3.24,28.34,8.05a10.14,10.14,0,0,0,14.66-9.05V1.47Z"/>
		{% else %}
		<path class="puzzle-path" d="M138.7,564.71a855.58,855.58,0,0,0,162,25.62h.7a26.61,26.61,0,0,0,18.49-45.76l-12.26-11.69a61,61,0,1,1,87,0L381.76,545a26.39,26.39,0,0,0,18.35,45.34h.5a831.94,831.94,0,0,0,163-25.65,857.67,857.67,0,0,0,25.64-162.06v-.69a26.63,26.63,0,0,0-45.77-18.5L531.82,395.7a61,61,0,1,1,0-87l12.11,12.8a26.38,26.38,0,0,0,45.35-18.33v-.51a834.12,834.12,0,0,0-25.67-163,833.56,833.56,0,0,1-163,25.65h-.51A26.38,26.38,0,0,1,381.73,120l12.81-12.12a61.07,61.07,0,1,0-87,0l12.27,11.68a26.61,26.61,0,0,1-18.5,45.76h-.69a840,840,0,0,1-162-25.6,832.63,832.63,0,0,1,25.67,163v.52A26.39,26.39,0,0,1,119,321.55l-12.13-12.8a61,61,0,1,0,0,87l11.68-12.26A26.62,26.62,0,0,1,164.33,402v.69A858.21,858.21,0,0,1,138.7,564.71Z" transform="translate(-3 -4)"/>
		{% endif %}

		{% if type == 'up' %}
		<text class="title" x="200" y="120" fill="#000000" text-anchor="middle" alignment-baseline="middle">
			{{ title }}
		</text>
		<text class="desc" x="200" y="150" fill="#000000" text-anchor="middle" alignment-baseline="middle">
			{{ description }}
		</text>
		<image x="175" y="170" width="50" height="50" xlink:href="{% get_media_prefix %}{{ icon }}" />
		{% elif type == 'down' %}
		<text class="title" x="200" y="200" fill="#000000" text-anchor="middle" alignment-baseline="middle">
			{{ title }}
		</text>
		<text class="desc" x="200" y="230" fill="#000000" text-anchor="middle" alignment-baseline="middle">
			{{ description }}
		</text>
		<image x="175" y="100" width="50" height="50" xlink:href="{% get_media_prefix %}{{ icon }}" />
		{% endif %}


	</a>
</svg>