<svg id="Standard" xmlns="http://www.w3.org/2000/svg" xmlns:xlink="http://www.w3.org/1999/xlink" viewBox="0 0 2192.07 2192.07"><defs><style>.cls-1{fill:none;}.cls-2{clip-path:url(#clip-path);}.cls-3{clip-path:url(#clip-path-2);}.cls-4{clip-path:url(#clip-path-4);}.cls-5{fill:url(#Unbenannter_Verlauf_4);}.cls-6{opacity:0.75;}.cls-7{clip-path:url(#clip-path-7);}.cls-8{opacity:0.5;}.cls-9{clip-path:url(#clip-path-8);}.cls-10{clip-path:url(#clip-path-9);}.cls-11{fill:url(#Unbenannter_Verlauf_4-3);}.cls-12{clip-path:url(#clip-path-10);}.cls-13{clip-path:url(#clip-path-11);}.cls-14{fill:url(#Unbenannter_Verlauf_4-4);}.cls-15{font-size:60px;font-family:BreeSerif-Regular, Bree Serif;}.cls-15,.cls-16,.cls-17{fill:#fff;}.cls-16{font-size:32px;font-family:OpenSans, Open Sans;}</style><clipPath id="clip-path" transform="translate(724.32 1209.93)"><path class="cls-1" d="M135.7,560.71a855.11,855.11,0,0,0,162,25.62h.7a26.61,26.61,0,0,0,18.49-45.76l-12.26-11.69a61,61,0,1,1,87,0L378.76,541a26.39,26.39,0,0,0,18.35,45.34h.5a832.17,832.17,0,0,0,163-25.65,857.49,857.49,0,0,0,25.64-162.06v-.69a26.63,26.63,0,0,0-45.77-18.5L528.82,391.7a61,61,0,1,1,0-87l12.11,12.8a26.38,26.38,0,0,0,45.35-18.33v-.51a834.45,834.45,0,0,0-25.67-163,833.67,833.67,0,0,1-163,25.65h-.51A26.38,26.38,0,0,1,378.73,116l12.81-12.12a61.07,61.07,0,1,0-87,0l12.27,11.68a26.61,26.61,0,0,1-18.5,45.76h-.69a839.91,839.91,0,0,1-162-25.6,833,833,0,0,1,25.67,163v.52A26.39,26.39,0,0,1,116,317.55l-12.13-12.8a61,61,0,1,0,0,87l11.68-12.26A26.62,26.62,0,0,1,161.33,398v.69A857.87,857.87,0,0,1,135.7,560.71Z"/></clipPath><clipPath id="clip-path-2" transform="translate(724.32 1209.93)"><rect class="cls-1" x="0.11" y="-46" width="586.87" height="830"/></clipPath><clipPath id="clip-path-4" transform="translate(724.32 1209.93)"><rect class="cls-1" x="0.11" y="-46" width="586.87" height="830"/></clipPath><radialGradient id="Unbenannter_Verlauf_4" cx="-0.01" cy="585.86" r="0.99" gradientTransform="matrix(420.43, 0, 0, -426.61, 1005.97, 251515.37)" gradientUnits="userSpaceOnUse"><stop offset="0" stop-color="#ffd800"/><stop offset="0.01" stop-color="#ffd800"/><stop offset="1" stop-color="#f39200"/></radialGradient><clipPath id="clip-path-7" transform="translate(724.32 1209.93)"><rect class="cls-1" x="-717.75" y="-700.93" width="1676.49" height="1455.35"/></clipPath><clipPath id="clip-path-8" transform="translate(724.32 1209.93)"><rect class="cls-1" x="-717.75" y="-419.31" width="1173.74" height="1173.74"/></clipPath><clipPath id="clip-path-9" transform="translate(724.32 1209.93)"><path class="cls-1" d="M-717.75,166c.84-324.11,264.27-586.19,588.39-585.35S456.82-155,456,169.07,191.73,755.26-132.39,754.42-718.58,490.16-717.75,166"/></clipPath><radialGradient id="Unbenannter_Verlauf_4-3" cx="0" cy="586.69" r="0.99" gradientTransform="matrix(0, -595.28, -595.28, 0, 349109.42, 165.05)" xlink:href="#Unbenannter_Verlauf_4"/><clipPath id="clip-path-10" transform="translate(724.32 1209.93)"><rect class="cls-1" x="-215.31" y="-700.93" width="1174.06" height="1174.06"/></clipPath><clipPath id="clip-path-11" transform="translate(724.32 1209.93)"><path class="cls-1" d="M-178.39,90.54C-291.3-213.27-136.53-551.1,167.29-664s641.63,41.86,754.54,345.68S880,323.31,576.16,436.21-65.48,394.36-178.39,90.54"/></clipPath><radialGradient id="Unbenannter_Verlauf_4-4" cx="0.13" cy="586.67" r="0.99" gradientTransform="matrix(-595.28, 0, 0, 595.28, 449.97, -349343.71)" xlink:href="#Unbenannter_Verlauf_4"/></defs><title>puzzle_idee</title><g class="cls-2"><g class="cls-3"><g class="cls-3"><g class="cls-4"><rect class="cls-5" x="724.42" y="1163.93" width="586.87" height="830"/></g><g class="cls-4"><rect class="cls-5" x="724.42" y="1163.93" width="586.87" height="830"/></g><g class="cls-3"><g class="cls-6"><g class="cls-7"><g class="cls-8"><g class="cls-9"><g class="cls-10"><rect class="cls-11" x="-720.08" y="-421.64" width="1178.4" height="1178.39" transform="translate(426.22 1246.18) rotate(-89.85)"/></g></g></g><g class="cls-8"><g class="cls-12"><g class="cls-13"><rect class="cls-14" x="-480.74" y="-966.36" width="1704.92" height="1704.92" transform="translate(787.28 1332.29) rotate(-20.39)"/></g></g></g></g></g></g></g></g></g><text class="cls-15" transform="translate(1011.22 1431.71)">IDEE</text><text class="cls-16" transform="translate(942.07 1473.25)">Was ist Weitblick? </text><path class="cls-17" d="M351.75,378.52h-6.43a2.71,2.71,0,0,0-2.7,2.75,2.66,2.66,0,0,0,2.7,2.7h6.43a2.72,2.72,0,0,0,2.84-2.7A2.76,2.76,0,0,0,351.75,378.52Z" transform="translate(724.32 1209.93)"/><path class="cls-17" d="M356.8,371H340.41a2.7,2.7,0,1,0,0,5.4H356.8a2.7,2.7,0,0,0,0-5.4Z" transform="translate(724.32 1209.93)"/><path class="cls-17" d="M374.67,313.87A30.34,30.34,0,0,0,348.56,299a30.7,30.7,0,0,0-21.31,8.74,30.12,30.12,0,0,0-8.78,21.06,28.24,28.24,0,0,0,2.45,11.14,118.66,118.66,0,0,0,7.51,14,43.37,43.37,0,0,1,2.75,6,32.38,32.38,0,0,0,3.39,6.82,2.56,2.56,0,0,0,2.21,1.08h24.54a2.62,2.62,0,0,0,2.31-1.28,27.1,27.1,0,0,0,2.4-5.54,38.54,38.54,0,0,1,2.5-5.94,142.85,142.85,0,0,0,7.56-14.78,29.89,29.89,0,0,0,2.61-11.53A28.87,28.87,0,0,0,374.67,313.87Zm-3.83,24.94a132.09,132.09,0,0,1-7,13.6,34.32,34.32,0,0,0-2.89,6.82c-.36,1.12-.79,2.21-1.23,3.24H338.3a32.74,32.74,0,0,1-2-4.52,49.64,49.64,0,0,0-3.24-6.87,126,126,0,0,1-6.87-12.76,24,24,0,0,1-2.25-9.52c-.24-13.06,11.38-24.57,24.64-24.35A24.74,24.74,0,0,1,370,316.62a23.54,23.54,0,0,1,3.34,12.18A25.49,25.49,0,0,1,370.84,338.81Z" transform="translate(724.32 1209.93)"/></svg>