<?xml version="1.0" encoding="utf-8"?>
<!-- Generator: Adobe Illustrator 22.0.1, SVG Export Plug-In . SVG Version: 6.00 Build 0)  -->
<svg version="1.1" id="Standard" xmlns="http://www.w3.org/2000/svg" xmlns:xlink="http://www.w3.org/1999/xlink" x="0px" y="0px"
	 viewBox="0 0 200 200" style="enable-background:new 0 0 200 200;" xml:space="preserve">
<style type="text/css">
	.st0{clip-path:url(#SVGID_2_);}
	.st1{clip-path:url(#SVGID_4_);}
	.st2{clip-path:url(#SVGID_6_);}
	.st3{clip-path:url(#SVGID_8_);fill:url(#SVGID_9_);}
	.st4{clip-path:url(#SVGID_11_);fill:url(#SVGID_12_);}
	.st5{opacity:0.75;clip-path:url(#SVGID_14_);}
	.st6{opacity:0.5;clip-path:url(#SVGID_16_);}
	.st7{clip-path:url(#SVGID_18_);}
	.st8{clip-path:url(#SVGID_20_);fill:url(#SVGID_21_);}
	.st9{clip-path:url(#SVGID_23_);}
	.st10{clip-path:url(#SVGID_25_);fill:url(#SVGID_26_);}
	.st11{fill:none;}
	.st12{fill:#FFFFFF;}
	.st13{font-family:'BreeSerif-Regular';}
	.st14{font-size:20.4641px;}
	.st15{font-family:'OpenSans';}
	.st16{font-size:10.9142px;}
</style>
<title>puzzle</title>
<g>
	<defs>
		<path id="SVGID_1_" d="M46.3,191.3c18.1,4.7,36.6,7.6,55.3,8.7h0.2c5,0,9.1-4.1,9.1-9.1c0-2.5-1-4.8-2.8-6.5l-4.2-4
			c-8.1-8.2-7.9-21.4,0.3-29.4s21.4-7.9,29.4,0.3c8,8.1,8,21.1,0,29.2l-4.4,4.1c-3.6,3.5-3.7,9.2-0.2,12.7c1.7,1.7,4,2.7,6.5,2.7
			h0.2c18.8-1.1,37.4-4,55.6-8.7c4.7-18.1,7.6-36.6,8.7-55.3v-0.2c0-5-4.1-9.1-9.1-9.1c-2.5,0-4.8,1-6.5,2.8l-4,4.2
			c-8.2,8.1-21.4,7.9-29.4-0.3c-8.1-8.2-7.9-21.4,0.3-29.4c8.1-8,21.1-8,29.2,0l4.1,4.4c3.5,3.6,9.2,3.7,12.7,0.2
			c1.8-1.7,2.7-4,2.7-6.5v-0.2c-1.1-18.8-4-37.4-8.8-55.6C173,51,154.4,54,135.6,55h-0.2c-5,0-9-4-9-9c0-2.4,1-4.8,2.7-6.5l4.4-4.1
			c8.1-8.2,8-21.4-0.2-29.5s-21.4-8-29.5,0.2c-8,8.1-8,21.1,0,29.2l4.2,4c3.6,3.5,3.7,9.2,0.2,12.8c-1.7,1.8-4.1,2.8-6.5,2.8h-0.2
			c-18.7-1.1-37.2-4-55.3-8.7c4.8,18.2,7.7,36.8,8.8,55.6v0.2c0,5-4.1,9-9,9c-2.4,0-4.7-1-6.4-2.7l-4.1-4.4C27.2,95.9,14,96,6,104.2
			s-7.9,21.4,0.3,29.4c8.1,8,21.1,8,29.2,0l4-4.2c3.5-3.6,9.2-3.7,12.8-0.2c1.8,1.7,2.8,4.1,2.8,6.5v0.2
			C53.9,154.7,50.9,173.2,46.3,191.3z"/>
	</defs>
	<clipPath id="SVGID_2_">
		<use xlink:href="#SVGID_1_"  style="overflow:visible;"/>
	</clipPath>
	<g class="st0">
		<g>
			<defs>
				<rect id="SVGID_3_" x="0" y="-15.7" width="200.2" height="283.1"/>
			</defs>
			<clipPath id="SVGID_4_">
				<use xlink:href="#SVGID_3_"  style="overflow:visible;"/>
			</clipPath>
			<g class="st1">
				<defs>
					<rect id="SVGID_5_" x="0" y="-15.7" width="200.2" height="283.1"/>
				</defs>
				<clipPath id="SVGID_6_">
					<use xlink:href="#SVGID_5_"  style="overflow:visible;"/>
				</clipPath>
				<g class="st2">
					<defs>
						<rect id="SVGID_7_" x="0" y="-15.7" width="200.2" height="283.1"/>
					</defs>
					<clipPath id="SVGID_8_">
						<use xlink:href="#SVGID_7_"  style="overflow:visible;"/>
					</clipPath>
					
						<radialGradient id="SVGID_9_" cx="-193.14" cy="393.17" r="1" gradientTransform="matrix(141.4224 0 0 -143.4475 27409.0605 56525.9297)" gradientUnits="userSpaceOnUse">
						<stop  offset="0" style="stop-color:#FFD800"/>
						<stop  offset="5.050661e-03" style="stop-color:#FFD800"/>
						<stop  offset="1" style="stop-color:#F39200"/>
					</radialGradient>
					<rect x="0" y="-15.7" class="st3" width="200.2" height="283.1"/>
				</g>
				<g class="st2">
					<defs>
						<rect id="SVGID_10_" x="0" y="-15.7" width="200.2" height="283.1"/>
					</defs>
					<clipPath id="SVGID_11_">
						<use xlink:href="#SVGID_10_"  style="overflow:visible;"/>
					</clipPath>
					
						<radialGradient id="SVGID_12_" cx="-193.14" cy="393.17" r="1" gradientTransform="matrix(141.4224 0 0 -143.4475 27409.0605 56525.9297)" gradientUnits="userSpaceOnUse">
						<stop  offset="0" style="stop-color:#FFD800"/>
						<stop  offset="5.050661e-03" style="stop-color:#FFD800"/>
						<stop  offset="1" style="stop-color:#F39200"/>
					</radialGradient>
					<rect x="0" y="-15.7" class="st4" width="200.2" height="283.1"/>
				</g>
				<g class="st2">
					<defs>
						<rect id="SVGID_13_" x="0" y="-15.7" width="200.2" height="283.1"/>
					</defs>
					<clipPath id="SVGID_14_">
						<use xlink:href="#SVGID_13_"  style="overflow:visible;"/>
					</clipPath>
					<g class="st5">
						<g>
							<defs>
								<rect id="SVGID_15_" x="-244.9" y="-239" width="572" height="496.4"/>
							</defs>
							<clipPath id="SVGID_16_">
								<use xlink:href="#SVGID_15_"  style="overflow:visible;"/>
							</clipPath>
							<g class="st6">
								<g>
									<defs>
										<rect id="SVGID_17_" x="-244.9" y="-143" width="400.5" height="400.3"/>
									</defs>
									<clipPath id="SVGID_18_">
										<use xlink:href="#SVGID_17_"  style="overflow:visible;"/>
									</clipPath>
									<g class="st7">
										<defs>
											<path id="SVGID_19_" d="M-244.9,56.6c0.3-110.5,90.2-199.9,200.8-199.6c110.6,0.3,200,90.1,199.7,200.7
												c-0.3,110.5-90.2,199.9-200.8,199.6C-155.8,257-245.2,167.2-244.9,56.6"/>
										</defs>
										<clipPath id="SVGID_20_">
											<use xlink:href="#SVGID_19_"  style="overflow:visible;"/>
										</clipPath>
										
											<radialGradient id="SVGID_21_" cx="-193.14" cy="393.17" r="1" gradientTransform="matrix(-200.2363 -0.5097 -0.5099 200.1612 -38517.8633 -78738.6719)" gradientUnits="userSpaceOnUse">
											<stop  offset="0" style="stop-color:#FFD800"/>
											<stop  offset="5.050661e-03" style="stop-color:#FFD800"/>
											<stop  offset="1" style="stop-color:#F39200"/>
										</radialGradient>
										<polygon class="st8" points="155.8,258.6 -246.2,257.6 -245.2,-144.3 156.9,-143.3 										"/>
									</g>
								</g>
							</g>
							<g class="st6">
								<g>
									<defs>
										<rect id="SVGID_22_" x="-73.5" y="-239" width="400.6" height="400.4"/>
									</defs>
									<clipPath id="SVGID_23_">
										<use xlink:href="#SVGID_22_"  style="overflow:visible;"/>
									</clipPath>
									<g class="st9">
										<defs>
											<path id="SVGID_24_" d="M-60.9,30.9C-99.4-72.7-46.6-187.9,57-226.5C160.7-265,276-212.2,314.5-108.6
												C353-4.9,300.2,110.3,196.5,148.8C92.9,187.3-22.4,134.5-60.9,30.9"/>
										</defs>
										<clipPath id="SVGID_25_">
											<use xlink:href="#SVGID_24_"  style="overflow:visible;"/>
										</clipPath>
										
											<radialGradient id="SVGID_26_" cx="-193.14" cy="393.17" r="1" gradientTransform="matrix(-187.6933 69.7318 69.7579 187.623 -63551.0156 -60338.5586)" gradientUnits="userSpaceOnUse">
											<stop  offset="0" style="stop-color:#FFD800"/>
											<stop  offset="5.050661e-03" style="stop-color:#FFD800"/>
											<stop  offset="1" style="stop-color:#F39200"/>
										</radialGradient>
										<polygon class="st10" points="500.8,132.4 -44.5,335 -247.2,-210.1 298.1,-412.6 										"/>
									</g>
								</g>
							</g>
						</g>
					</g>
				</g>
			</g>
		</g>
	</g>
</g>
<rect x="97.7" y="64.1" class="st11" width="42.6" height="18.1"/>
<text transform="matrix(1.0004 0 0 1 97.8534 78.6606)" class="st12 st13 st14">IDEE</text>
<rect x="62.7" y="84.5" class="st11" width="112.7" height="18.1"/>
<text transform="matrix(1.0004 0 0 1 74.2592 92.828)" class="st12 st15 st16">Was ist Weitblick? </text>
<g>
	<g>
		<path class="st12" d="M120,129.1h-2.2c-0.5,0-0.9,0.4-0.9,0.9s0.4,0.9,0.9,0.9h2.2c0.6,0,1-0.4,1-0.9S120.5,129.1,120,129.1z"/>
		<path class="st12" d="M121.7,126.6h-5.6c-0.5,0-1,0.4-1,0.9s0.4,0.9,1,0.9h5.6c0.5,0,0.9-0.4,0.9-0.9S122.2,126.6,121.7,126.6z"/>
		<path class="st12" d="M127.8,107.1c-0.9-1.6-2.2-2.8-3.8-3.7c-1.6-0.9-3.3-1.4-5.2-1.4c-2.8,0-5.4,1.2-7.3,3c-1.8,1.8-3,4.4-3,7.2
			c0,1.2,0.3,2.5,0.8,3.8c0.6,1.3,1.4,2.9,2.6,4.8c0.3,0.4,0.6,1.1,0.9,2.1c0.4,1.1,0.8,1.9,1.2,2.3c0.2,0.3,0.4,0.4,0.8,0.4h8.4
			c0.4,0,0.6-0.2,0.8-0.4c0.2-0.4,0.5-1,0.8-1.9c0.3-0.9,0.6-1.6,0.9-2c1.1-2,2-3.6,2.6-5c0.6-1.4,0.9-2.7,0.9-3.9
			C129.2,110.3,128.7,108.6,127.8,107.1z M126.5,115.6c-0.5,1.3-1.3,2.8-2.4,4.6c-0.3,0.6-0.7,1.4-1,2.3c-0.1,0.4-0.3,0.8-0.4,1.1
			h-7.3c-0.3-0.4-0.4-0.9-0.7-1.5c-0.5-1.2-0.9-1.9-1.1-2.3c-1.1-1.8-1.8-3.2-2.3-4.4s-0.8-2.2-0.8-3.2c-0.1-4.5,3.9-8.4,8.4-8.3
			c1.5,0,2.9,0.4,4.2,1.1c1.3,0.8,2.3,1.8,3.1,3c0.8,1.3,1.1,2.7,1.1,4.2C127.3,113.2,127,114.3,126.5,115.6z"/>
	</g>
</g>
</svg>
