<svg xmlns="http://www.w3.org/2000/svg" xmlns:xlink="http://www.w3.org/1999/xlink" viewBox="0 0 70 70"><defs><style>.a,.c{fill:none;}.b{clip-path:url(#a);}.c{stroke:#9aafc5;stroke-linecap:round;stroke-linejoin:round;stroke-width:1.92px;}</style><clipPath id="a"><rect class="a" x="-749.88" y="-460.97" width="1280" height="2230"/></clipPath></defs><title>hand-01</title><g class="b"><path class="c" d="M54.51,36.9h5.31a4.24,4.24,0,1,0,0-8.48H30.43c-2.46,0-3.62-3.64-1.78-5.28l6.54-5.33h0c1,0,1.57-1.42,1.57-2.72a3.81,3.81,0,0,0-4-3.78,4.13,4.13,0,0,0-1.84.56L14.3,22.18A19.41,19.41,0,0,0,4.67,38.6v7.7a16,16,0,0,0,16,16.05H51.33a4.24,4.24,0,0,0,0-8.48H43.91m-10.61,0H55.57a4.25,4.25,0,1,0,0-8.49H52.39m-19.09,0H61.94a4.24,4.24,0,1,0,0-8.48H33.3"/></g></svg>