<svg id="Ebene_1" data-name="Ebene 1" xmlns="http://www.w3.org/2000/svg" xmlns:xlink="http://www.w3.org/1999/xlink" viewBox="0 0 70 70">
	<title>Icon_Kalender</title>
	<g class="cls-3">
		<path class="cls-4" d="M50.86,56.85H19.14A5.23,5.23,0,0,1,14,51.54V22.78a5.23,5.23,0,0,1,5.14-5.31H25V14.15a1,1,0,0,1,2,0v3.31H43V14.15a1,1,0,1,1,2,0v3.31h5.89A5.23,5.23,0,0,1,56,22.78V51.54A5.23,5.23,0,0,1,50.86,56.85ZM16,28.09V51.54a3.23,3.23,0,0,0,3.14,3.31H50.86A3.23,3.23,0,0,0,54,51.54V28.09Zm0-2H54V22.78a3.23,3.23,0,0,0-3.14-3.31H45v1.88a1,1,0,0,1-2,0V19.46H27v1.88a1,1,0,0,1-2,0V19.46h-5.9A3.23,3.23,0,0,0,16,22.78ZM44,49.66H38.45a1,1,0,1,1,0-2h1.76V36.77l-1,1.08a1,1,0,0,1-1.44-1.38l2.76-2.88a1,1,0,0,1,1.72.69V47.66H44a1,1,0,0,1,0,2Zm-14.48,0h-.14A4.54,4.54,0,0,1,25,45.06a1,1,0,0,1,2,0,2.53,2.53,0,0,0,2.45,2.6h.1a2.52,2.52,0,0,0,2.34-2.56,2.46,2.46,0,0,0-2.45-2.51H27.76a1,1,0,0,1,0-2h1.72a2.59,2.59,0,0,0,2.45-2.65,2.45,2.45,0,1,0-4.9-.06,1,1,0,0,1-2,0,4.45,4.45,0,1,1,8.9,0,4.8,4.8,0,0,1-1.68,3.7,4.55,4.55,0,0,1,1.68,3.49v0h0v.06A4.52,4.52,0,0,1,29.48,49.66Z"/>
	</g>
</svg>