<svg id="Ebene_1" data-name="Ebene 1" xmlns="http://www.w3.org/2000/svg" xmlns:xlink="http://www.w3.org/1999/xlink" viewBox="0 0 70 70">
	<defs>
		<style>.cls-1{fill:none;}.cls-2{fill:#8a9cac;}.cls-3{clip-path:url(#clip-path);}.cls-4{fill:#fff;}</style>
		<clipPath id="clip-path"><rect class="cls-1" width="70" height="70"/></clipPath>
	</defs>
	<title>Icon_Ortmarker</title>
	<g class="cls-3">
		<path class="cls-4" d="M35,57.79a1,1,0,0,1-.79-.38c-.65-.82-15.92-20.27-15.92-28.94A16.5,16.5,0,0,1,35,12.21,16.5,16.5,0,0,1,51.71,28.46c0,8.67-15.27,28.12-15.92,28.94A1,1,0,0,1,35,57.79Zm0-43.58A14.5,14.5,0,0,0,20.29,28.46C20.29,35.39,31.85,51,35,55.15,38.15,51,49.71,35.39,49.71,28.46A14.5,14.5,0,0,0,35,14.21ZM35,36a8,8,0,1,1,8-8A8,8,0,0,1,35,36Zm0-13.95a6,6,0,1,0,6,6A6,6,0,0,0,35,22.05Z"/>
	</g>
</svg>