<svg id="Ebene_1" data-name="Ebene 1" xmlns="http://www.w3.org/2000/svg" xmlns:xlink="http://www.w3.org/1999/xlink" viewBox="0 0 70 70"><defs><style>.cls-1{fill:none;}.cls-2{fill:#8a9cac;}.cls-3{clip-path:url(#clip-path);}.cls-4{fill:#fff;}</style><clipPath id="clip-path"><rect class="cls-1" width="70" height="70"/></clipPath></defs><title>Icon_News</title><rect class="cls-2" width="70" height="70"/><g class="cls-3"><path class="cls-4" d="M53.13,55H16.76A4.88,4.88,0,0,1,12,50V27.88a4.89,4.89,0,0,1,4.56-4.95V20.06a5,5,0,0,1,4.91-5l31.7,0A5,5,0,0,1,58,20V50A5,5,0,0,1,53.13,55ZM16.76,53H53.13A3,3,0,0,0,56,50V20a3,3,0,0,0-2.91-3l-31.7,0a3,3,0,0,0-2.91,3V49.23a1,1,0,1,1-2,0V24.94A2.9,2.9,0,0,0,14,27.88V50A2.88,2.88,0,0,0,16.76,53ZM54,48.65H38.8a1,1,0,0,1,0-2H54a1,1,0,0,1,0,2Zm-18.24,0H20.56a1,1,0,0,1-1-1V35a1,1,0,0,1,1-1h15.2a1,1,0,0,1,1,1V47.65A1,1,0,0,1,35.76,48.65Zm-14.2-2h13.2V36H21.56ZM54,42.33H38.8a1,1,0,0,1,0-2H54a1,1,0,0,1,0,2ZM54,36H38.8a1,1,0,0,1,0-2H54a1,1,0,0,1,0,2ZM26.64,31.26a1,1,0,0,1-.84-.46l-4.24-6.61v6.07a1,1,0,1,1-2,0V20.77a1,1,0,0,1,1.84-.54l4.24,6.61V20.77a1,1,0,0,1,2,0v9.49a1,1,0,0,1-1,1Zm16.72,0a1,1,0,0,1-.94-.66l-1.34-3.72-1.34,3.72a1,1,0,0,1-1.93-.18l-1.52-9.49a1,1,0,1,1,2-.32l.91,5.66,1-2.68a1,1,0,0,1,1.88,0l1,2.68.91-5.66a1,1,0,0,1,2,.32l-1.52,9.49a1,1,0,0,1-.89.84Zm7.6,0c-2.16,0-3.89-1.35-4-3.14a1,1,0,0,1,2-.16c.06.72,1,1.3,2,1.3s2-.63,2-1.37-.64-1.08-2.07-1.36l-.3-.06c-2.46-.47-3.71-1.59-3.71-3.33s1.81-3.37,4-3.37,3.89,1.38,4,3.14A1,1,0,0,1,54.08,24,1,1,0,0,1,53,23.07c-.06-.72-1-1.3-2-1.3s-2,.63-2,1.37.64,1.09,2.08,1.36l.3.06c2.45.47,3.7,1.59,3.7,3.32S53.19,31.26,51,31.26Zm-16.72,0H29.68a1,1,0,0,1-1-1V20.77a1,1,0,0,1,1-1h4.56a1,1,0,0,1,0,2H30.68v2.74h2a1,1,0,0,1,0,2h-2v2.74h3.56a1,1,0,0,1,0,2Z"/></g></svg>