<svg id="Ebene_1" data-name="Ebene 1" xmlns="http://www.w3.org/2000/svg" viewBox="0 0 20 30"><defs><style>.cls-1{fill:#ff8210;}</style></defs><title>Icon_PDF</title><path class="cls-1" d="M19.5,29H.5a.5.5,0,0,1-.5-.5V9.27H0a.5.5,0,0,1,.13-.33h0L6.85,2.13A.5.5,0,0,1,7.2,2H19.5a.5.5,0,0,1,.5.5v26A.5.5,0,0,1,19.5,29ZM1,28H19V3H7.71V9.27a.5.5,0,0,1-.5.5H1ZM1.7,8.77h5V3.69Zm2.1,18a2.28,2.28,0,0,1-.65-.09c-.71-.21-.89-.61-.91-.91-.06-.92,1.62-2.24,5-3.92.4-.81.73-1.59,1-2.16l.2-.47a18.5,18.5,0,0,0,.69-1.93c-1.26-1.91-1.56-4-1-5.26a1.5,1.5,0,0,1,1.37-1h0a1.23,1.23,0,0,1,1.05.59c.69,1.07.26,3.52-.3,5.52a8.07,8.07,0,0,0,.71.83A15.82,15.82,0,0,0,13,19.72c1.67-.3,3.29-.28,4.13.27a1.34,1.34,0,0,1,.66,1.16,1.09,1.09,0,0,1-.68,1.07c-.93.38-2.64-.3-4.32-1.43a13,13,0,0,0-2.56.82c-.79.35-1.53.7-2.2,1C7,24.72,5.55,26.81,3.8,26.81ZM3.26,25.7l.18.06c1.05.3,2.09-.84,3-2.29C4.53,24.49,3.41,25.31,3.26,25.7Zm11-5.15a4,4,0,0,0,2.41.73s.06,0,.06-.14a.35.35,0,0,0-.2-.32A4,4,0,0,0,14.29,20.55ZM9.85,18.29c-.19.56-.37,1-.51,1.36l-.2.47c-.14.33-.3.7-.47,1.09l1.12-.51A13.56,13.56,0,0,1,11.71,20a16.68,16.68,0,0,1-1.51-1.34ZM9.44,12c-.18,0-.33.14-.45.42A4.72,4.72,0,0,0,9.48,16c.39-1.65.55-3.23.19-3.8A.25.25,0,0,0,9.44,12Z"/></svg>