<svg id="Ebene_1" data-name="Ebene 1" xmlns="http://www.w3.org/2000/svg" xmlns:xlink="http://www.w3.org/1999/xlink" viewBox="0 0 70 70">
	<defs>
		<style>.cls-1,.cls-5{fill:none;}.cls-2{fill:#8a9cac;}.cls-3{clip-path:url(#clip-path);}.cls-4{fill:#fff;}.cls-5{stroke:#8a9cac;stroke-width:0.5px;}</style>
		<clipPath id="clip-path"><rect class="cls-1" width="70" height="70"/></clipPath>
	</defs>
	<title>Icon_Euro</title>
	<g class="cls-3">
		<path class="cls-4" d="M50,50.23a2.78,2.78,0,0,0-.11-.63.68.68,0,0,0-.21-.34.52.52,0,0,0-.32-.1,1.91,1.91,0,0,0-1,.55,14.06,14.06,0,0,1-1.74,1.19A14.75,14.75,0,0,1,44,52.1a11.15,11.15,0,0,1-3.71.55A11.88,11.88,0,0,1,36,52a8.66,8.66,0,0,1-3.16-2.07,10.62,10.62,0,0,1-2.18-3.39,20.51,20.51,0,0,1-1.26-4.63H40a.92.92,0,0,0,.81-.43,2.45,2.45,0,0,0,.29-1.34,3.49,3.49,0,0,0-.08-.79,1.83,1.83,0,0,0-.23-.57,1,1,0,0,0-.34-.34.87.87,0,0,0-.45-.11H29.11q-.07-.74-.1-1.49t0-1.52q0-.9,0-1.69t.1-1.53H40a.92.92,0,0,0,.81-.43,2.52,2.52,0,0,0,.29-1.37,3.48,3.48,0,0,0-.08-.79,1.62,1.62,0,0,0-.23-.55,1.08,1.08,0,0,0-.34-.32.88.88,0,0,0-.45-.11H29.53a25.14,25.14,0,0,1,1.31-4.76A11.55,11.55,0,0,1,33,20.21,8.54,8.54,0,0,1,36,18,10.31,10.31,0,0,1,40,17.29a11.81,11.81,0,0,1,3.6.48,15.4,15.4,0,0,1,2.55,1,16.47,16.47,0,0,1,1.73,1,2.13,2.13,0,0,0,1.16.48.59.59,0,0,0,.37-.11.82.82,0,0,0,.24-.34,1.83,1.83,0,0,0,.13-.55,8.36,8.36,0,0,0,0-1.48,2.57,2.57,0,0,0-.11-.56,2.05,2.05,0,0,0-.22-.47A2.58,2.58,0,0,0,49,16.3a9.1,9.1,0,0,0-1.23-.79,12,12,0,0,0-2-.89A18.77,18.77,0,0,0,43.1,14a15.77,15.77,0,0,0-2.86-.26,15.34,15.34,0,0,0-5.82,1,12.53,12.53,0,0,0-4.37,3,15.81,15.81,0,0,0-3,4.65,27.33,27.33,0,0,0-1.81,6.15H21a.88.88,0,0,0-.45.11.93.93,0,0,0-.32.32,1.61,1.61,0,0,0-.19.55,4.18,4.18,0,0,0-.07.79,2.79,2.79,0,0,0,.26,1.37.84.84,0,0,0,.77.43h3.81q0,.74-.07,1.63t0,1.73q0,.74,0,1.47t.07,1.4H21a.87.87,0,0,0-.45.11.89.89,0,0,0-.32.34,1.81,1.81,0,0,0-.19.57,4.19,4.19,0,0,0-.07.79,2.71,2.71,0,0,0,.26,1.34.84.84,0,0,0,.77.43H25a23.8,23.8,0,0,0,1.78,6.21,14.72,14.72,0,0,0,3.1,4.52,12.47,12.47,0,0,0,4.36,2.76,15.64,15.64,0,0,0,5.55.94A16.72,16.72,0,0,0,43.29,56a19.1,19.1,0,0,0,2.82-.81,11.61,11.61,0,0,0,2.07-1,7.37,7.37,0,0,0,1.18-.87,2.46,2.46,0,0,0,.52-.74,3.62,3.62,0,0,0,.18-1.34q0-.58,0-1"/>
		<path class="cls-5" d="M50,50.23a2.78,2.78,0,0,0-.11-.63.68.68,0,0,0-.21-.34.52.52,0,0,0-.32-.1,1.91,1.91,0,0,0-1,.55,14.06,14.06,0,0,1-1.74,1.19A14.75,14.75,0,0,1,44,52.1a11.15,11.15,0,0,1-3.71.55A11.88,11.88,0,0,1,36,52a8.66,8.66,0,0,1-3.16-2.07,10.62,10.62,0,0,1-2.18-3.39,20.51,20.51,0,0,1-1.26-4.63H40a.92.92,0,0,0,.81-.43,2.45,2.45,0,0,0,.29-1.34,3.49,3.49,0,0,0-.08-.79,1.83,1.83,0,0,0-.23-.57,1,1,0,0,0-.34-.34.87.87,0,0,0-.45-.11H29.11q-.07-.74-.1-1.49t0-1.52q0-.9,0-1.69t.1-1.53H40a.92.92,0,0,0,.81-.43,2.52,2.52,0,0,0,.29-1.37,3.48,3.48,0,0,0-.08-.79,1.62,1.62,0,0,0-.23-.55,1.08,1.08,0,0,0-.34-.32.88.88,0,0,0-.45-.11H29.53a25.14,25.14,0,0,1,1.31-4.76A11.55,11.55,0,0,1,33,20.21,8.54,8.54,0,0,1,36,18,10.31,10.31,0,0,1,40,17.29a11.81,11.81,0,0,1,3.6.48,15.4,15.4,0,0,1,2.55,1,16.47,16.47,0,0,1,1.73,1,2.13,2.13,0,0,0,1.16.48.59.59,0,0,0,.37-.11.82.82,0,0,0,.24-.34,1.83,1.83,0,0,0,.13-.55,8.36,8.36,0,0,0,0-1.48,2.57,2.57,0,0,0-.11-.56,2.05,2.05,0,0,0-.22-.47A2.58,2.58,0,0,0,49,16.3a9.1,9.1,0,0,0-1.23-.79,12,12,0,0,0-2-.89A18.77,18.77,0,0,0,43.1,14a15.77,15.77,0,0,0-2.86-.26,15.34,15.34,0,0,0-5.82,1,12.53,12.53,0,0,0-4.37,3,15.81,15.81,0,0,0-3,4.65,27.33,27.33,0,0,0-1.81,6.15H21a.88.88,0,0,0-.45.11.93.93,0,0,0-.32.32,1.61,1.61,0,0,0-.19.55,4.18,4.18,0,0,0-.07.79,2.79,2.79,0,0,0,.26,1.37.84.84,0,0,0,.77.43h3.81q0,.74-.07,1.63t0,1.73q0,.74,0,1.47t.07,1.4H21a.87.87,0,0,0-.45.11.89.89,0,0,0-.32.34,1.81,1.81,0,0,0-.19.57,4.19,4.19,0,0,0-.07.79,2.71,2.71,0,0,0,.26,1.34.84.84,0,0,0,.77.43H25a23.8,23.8,0,0,0,1.78,6.21,14.72,14.72,0,0,0,3.1,4.52,12.47,12.47,0,0,0,4.36,2.76,15.64,15.64,0,0,0,5.55.94A16.72,16.72,0,0,0,43.29,56a19.1,19.1,0,0,0,2.82-.81,11.61,11.61,0,0,0,2.07-1,7.37,7.37,0,0,0,1.18-.87,2.46,2.46,0,0,0,.52-.74,3.62,3.62,0,0,0,.18-1.34Q50.05,50.62,50,50.23Z"/>
	</g>
</svg>