<svg xmlns="http://www.w3.org/2000/svg" viewBox="0 0 70 70"><defs><style>.a{fill:none;stroke:#1d1d1b;stroke-linecap:round;stroke-miterlimit:10;stroke-width:1.92px;}</style></defs><title>idea</title><path class="a" d="M33.46,65.24h4.38m-6.57-4.38H40m-11-4.38H42.22M55.36,23.62a19.72,19.72,0,0,0-39.43,0c0,.22,0,.42,0,.63,0,.52-.06,1,0,1.56.21,5.52,3.33,10.62,7.25,14a2.64,2.64,0,0,1,.91,1.53c.54,2.91,2.1,10.77,6.08,10.77H41.12c4,0,5.55-7.87,6.08-10.77a2.68,2.68,0,0,1,.92-1.53c4.09-3.51,7.24-8.17,7.24-14,0-.36,0-.71,0-1.07S55.36,24,55.36,23.62Z"/></svg>