<svg id="Ebene_1" data-name="Ebene 1" xmlns="http://www.w3.org/2000/svg" xmlns:xlink="http://www.w3.org/1999/xlink" viewBox="0 0 50 50">
	<defs>
		<style>.cls-1{fill:none;}.cls-2{fill:#8a9cac;}.cls-3{clip-path:url(#clip-path);}.cls-4{fill:#fff;}</style>
		<clipPath id="clip-path"><rect class="cls-1" width="50" height="50"/></clipPath>
	</defs>
	<title>Instagram</title>
	<g class="cls-3">
		<path class="cls-4" d="M29.2,20.78a6,6,0,0,0-8.41,0,5.91,5.91,0,0,0,0,8.41,5.84,5.84,0,0,0,8.37,0,5.91,5.91,0,0,0,0-8.41m4.72-8.28a.79.79,0,0,1,.89-.89H37.5a.79.79,0,0,1,.89.89v2.68a.79.79,0,0,1-.89.89H34.82a1,1,0,0,1-.89-.89ZM14,9a4.83,4.83,0,0,0-3.52,1.45A4.78,4.78,0,0,0,9,14v5.43h8.11A8.94,8.94,0,0,1,25,15.33a9.17,9.17,0,0,1,7.89,4.09H41V14a4.78,4.78,0,0,0-1.47-3.53A4.83,4.83,0,0,0,36,9ZM36,41a4.77,4.77,0,0,0,3.52-1.49A4.9,4.9,0,0,0,41,35.94V23.14H34.45A7.63,7.63,0,0,1,34.67,25a9.3,9.3,0,0,1-2.86,6.81,9.57,9.57,0,0,1-13.66,0A9.28,9.28,0,0,1,15.33,25a13.32,13.32,0,0,1,.15-1.86H9v12.8a4.9,4.9,0,0,0,1.47,3.57A4.77,4.77,0,0,0,14,41Z"/>
	</g>
</svg>