<svg id="Ebene_1" data-name="Ebene 1" xmlns="http://www.w3.org/2000/svg" xmlns:xlink="http://www.w3.org/1999/xlink" viewBox="0 0 70 70"><defs><style>.cls-1{fill:none;}.cls-2{clip-path:url(#clip-path);}.cls-3{fill:#8a9cac;}</style><clipPath id="clip-path"><rect class="cls-1" x="8" y="7.28" width="54.38" height="55.72"/></clipPath></defs><title>Ladekreise</title><g class="cls-2"><path class="cls-3" d="M43.2,13.79a6.68,6.68,0,0,1-13.35,0,6.68,6.68,0,0,1,13.35,0"/><path class="cls-3" d="M40.53,59.1a4,4,0,1,1-4-3.91,4,4,0,0,1,4,3.91"/><path class="cls-3" d="M26.13,20.42a6,6,0,1,1-6-5.87,5.94,5.94,0,0,1,6,5.87"/><path class="cls-3" d="M56.26,52.46a3.34,3.34,0,1,1-3.34-3.25,3.31,3.31,0,0,1,3.34,3.25"/><path class="cls-3" d="M18.68,36.45a5.34,5.34,0,1,1-5.34-5.21,5.27,5.27,0,0,1,5.34,5.21"/><path class="cls-3" d="M62.38,36.44a2.67,2.67,0,1,1-2.68-2.6,2.64,2.64,0,0,1,2.68,2.6"/><path class="cls-3" d="M16.83,49.23a4.48,4.48,0,0,0,0,6.46,4.75,4.75,0,0,0,6.61,0,4.5,4.5,0,0,0,0-6.46,4.73,4.73,0,0,0-6.61,0"/><path class="cls-3" d="M54.92,20.42a2,2,0,1,1-2-2,2,2,0,0,1,2,2"/></g></svg>