<svg id="Ebene_1" data-name="Ebene 1" xmlns="http://www.w3.org/2000/svg" viewBox="0 0 25 25"><defs><style>.cls-1{fill:#8a9cac;}</style></defs><title>Lupe</title><path class="cls-1" d="M24.13,20.89,19.26,16A9.77,9.77,0,0,0,21,10.35a12.4,12.4,0,0,0-.79-3.87,8.1,8.1,0,0,0-2.14-3.21,12.91,12.91,0,0,0-3.21-2.14A8.46,8.46,0,0,0,11,.34a10.91,10.91,0,0,0-3.9.79A9.4,9.4,0,0,0,3.93,3.27,10.16,10.16,0,0,0,1,10.35a9.2,9.2,0,0,0,.79,3.9,10.71,10.71,0,0,0,2.14,3.18,9.71,9.71,0,0,0,3.18,2.14,9.85,9.85,0,0,0,3.9.79,9.77,9.77,0,0,0,5.68-1.76l4.86,4.87A1.66,1.66,0,0,0,22.8,24a1.83,1.83,0,0,0,1.3-.53,1.7,1.7,0,0,0,.56-1.27,1.77,1.77,0,0,0-.53-1.3m-8.64-6A6.34,6.34,0,0,1,11,16.71,5.68,5.68,0,0,1,6.5,14.86a6.6,6.6,0,0,1-1.86-4.51A6,6,0,0,1,6.5,5.86,6.08,6.08,0,0,1,11,4a6.26,6.26,0,0,1,4.48,1.89,6.07,6.07,0,0,1,1.88,4.48,6.47,6.47,0,0,1-1.88,4.51"/></svg>