<svg id="Ebene_1" data-name="Ebene 1" xmlns="http://www.w3.org/2000/svg" viewBox="0 0 50 50"><defs><style>.cls-1{fill:#8a9cac;}.cls-2{fill:#fff;}</style></defs><title>Schloss</title><rect class="cls-1" width="50" height="50"/><path class="cls-2" d="M23.65,31.48a2.33,2.33,0,0,1-1.27-2.2,2.63,2.63,0,0,1,.77-1.91,2.57,2.57,0,0,1,3.71,0,2.64,2.64,0,0,1,.77,1.91,2.47,2.47,0,0,1-1.27,2.24l1.27,5.64H22.37Zm-4.87-8.15V20.2a5.78,5.78,0,0,1,.5-2.39,6.31,6.31,0,0,1,2.16-2.72A5.9,5.9,0,0,1,25,14a6.21,6.21,0,0,1,2.4.46,5.85,5.85,0,0,1,3.82,5.72v3.13ZM35.12,40.44a2.22,2.22,0,0,0,1.6-.71,2.26,2.26,0,0,0,.72-1.64V25.69a2.14,2.14,0,0,0-1.54-2.2V20.2a10.47,10.47,0,0,0-3.17-7.69A10.53,10.53,0,0,0,25,9.31a10.53,10.53,0,0,0-7.73,3.21,10.47,10.47,0,0,0-3.17,7.69v3.28a2.14,2.14,0,0,0-1.55,2.2v12.4a2.25,2.25,0,0,0,.72,1.64,2.21,2.21,0,0,0,1.6.71Z"/></svg>