<svg id="Ebene_1" data-name="Ebene 1" xmlns="http://www.w3.org/2000/svg" xmlns:xlink="http://www.w3.org/1999/xlink" viewBox="0 0 50 50">
	<defs><style>.cls-1{fill:none;}.cls-2{fill:#8a9cac;}.cls-3{clip-path:url(#clip-path);}.cls-4{fill:#fff;}</style><clipPath id="clip-path"><rect class="cls-1" width="50" height="50"/></clipPath></defs>
	<title>Twitter</title>
	<g class="cls-3">
		<path class="cls-4" d="M41.55,23.24c2.4-.2,4-1.29,4.66-2.77a7.66,7.66,0,0,1-5,.56c-.07-.35-.15-.68-.23-1-1.13-4.16-5-7.51-9.07-7.1.33-.13.66-.26,1-.37s3.07-.59,2.66-1.51-3.55.62-4.16.8c.8-.3,2.11-.81,2.25-1.73a6.36,6.36,0,0,0-3.34,1.58,2.3,2.3,0,0,0,.64-1.27c-3.26,2.08-5.16,6.27-6.7,10.34A16,16,0,0,0,21,18.19a84.58,84.58,0,0,0-11-4.83c-.16,1.67.83,3.9,3.66,5.38A9,9,0,0,0,11,19c.37,1.92,1.56,3.5,4.79,4.26a3.91,3.91,0,0,0-2.93,1.16A5,5,0,0,0,18.14,27c-3.28,1.42-1.34,4,1.33,3.65a11.34,11.34,0,0,1-15.87.42C14.38,45.8,37.8,39.8,41.29,25.66a6.48,6.48,0,0,0,5.11-1.93,10.41,10.41,0,0,1-4.85-.49"/>
	</g>
</svg>