<svg id="Ebene_1" data-name="Ebene 1" xmlns="http://www.w3.org/2000/svg" xmlns:xlink="http://www.w3.org/1999/xlink" viewBox="0 0 50 50">
	<defs><style>.cls-1{fill:none;}.cls-2{fill:#8a9cac;}.cls-3{clip-path:url(#clip-path);}.cls-4{fill:#fff;}</style><clipPath id="clip-path"><rect class="cls-1" width="50" height="50"/></clipPath></defs>
	<title>Youtube</title>
	<g class="cls-3">
		<path class="cls-4" d="M17.76,19.74H20v-7.8l2.67-6.68H20.22l-1.42,5-1.44-5H14.92l2.84,6.7ZM24.38,17a1,1,0,1,0,1.9,0V11.59a1,1,0,1,0-1.9,0ZM22.5,13a8.48,8.48,0,0,1,.24-2.29,2.45,2.45,0,0,1,2.5-1.82,3,3,0,0,1,1.42.32,2.38,2.38,0,0,1,.92.83A3.29,3.29,0,0,1,28,11.07a8.48,8.48,0,0,1,.12,1.67v2.57A13.89,13.89,0,0,1,28,17.39a3.29,3.29,0,0,1-.47,1.23,2.24,2.24,0,0,1-.92.85,2.93,2.93,0,0,1-1.3.27A3.61,3.61,0,0,1,24,19.51a1.9,1.9,0,0,1-.88-.7,3.11,3.11,0,0,1-.45-1.14,11,11,0,0,1-.13-2Zm7.25,5.74a1.45,1.45,0,0,0,.52.65,1.49,1.49,0,0,0,.88.24,1.37,1.37,0,0,0,.82-.26,2,2,0,0,0,.6-.77l0,.84h2.39V9.25H33v7.91a.78.78,0,0,1-1.57,0V9.25h-2v6.86c0,.87,0,1.46,0,1.75a3,3,0,0,0,.21.85M38,35.25H36.39c0,.06,0,.14,0,.22v.9a.88.88,0,0,1-.88.87h-.32a.88.88,0,0,1-.88-.87V34H38V32.63a22.09,22.09,0,0,0-.11-2.6c-.26-1.83-2.83-2.12-4.13-1.18a2.43,2.43,0,0,0-.9,1.21,6.81,6.81,0,0,0-.27,2.16v3c0,5.07,6.15,4.35,5.42,0m-6.71.68V30.82c0-1.95-1.46-3.11-3.44-1.54v-3.8H25.71V38.6l1.76,0,.16-.82c2.25,2.07,3.67.65,3.66-1.83m-6.86-7H22.28V35a11,11,0,0,1,0,1.49c-.18.48-1,1-1.26.05a12.21,12.21,0,0,1,0-1.5V28.9H18.86V35c0,.93,0,1.63,0,1.94.05.56,0,1.21.55,1.58,1,.69,2.81-.1,3.28-1.1v1.27h1.72Zm-7.71,9.79V27.19h2.57v-1.7H12.43v1.68h2.14V38.69Zm24.41-12.1V37.5a4.92,4.92,0,0,1-5,4.76H15.33a4.92,4.92,0,0,1-5-4.76V26.58a4.92,4.92,0,0,1,5-4.76H36.08a4.92,4.92,0,0,1,5,4.76M28.75,29.79a.87.87,0,0,0-.94.77V36.3a1,1,0,0,0,1.88,0V30.56a.87.87,0,0,0-.94-.77m7.62,2.53h-2V31.14a1,1,0,0,1,1-1h.13a1,1,0,0,1,1,1Z"/>
	</g>
</svg>