<?xml version="1.0" encoding="iso-8859-1"?>
<!DOCTYPE svg PUBLIC "-//W3C//DTD SVG 1.1//EN" "http://www.w3.org/Graphics/SVG/1.1/DTD/svg11.dtd">
<svg version="1.1" id="Capa_1" xmlns="http://www.w3.org/2000/svg" xmlns:xlink="http://www.w3.org/1999/xlink" x="0px" y="0px"
	 width="792px" height="792px" viewBox="0 0 792 792" xml:space="preserve">
	<path fill="#fff" d="M425.512,741.214H365.58c-14.183,0-25.164,11.439-25.164,25.622S351.397,792,365.58,792h59.932
			c15.101,0,26.54-10.981,26.54-25.164S440.612,741.214,425.512,741.214z"/>
	<path fill="#fff" d="M472.638,671.209H319.821c-14.183,0-26.081,10.98-26.081,25.163s11.898,25.164,26.081,25.164h152.817
			c14.183,0,25.164-10.981,25.164-25.164S486.82,671.209,472.638,671.209z"/>
	<path fill="#fff" d="M639.188,138.634c-25.164-42.548-59.181-76.135-102.49-101.113C493.526,12.621,446.566,0,395.771,0
			C320.28,0,247.19,31.684,197.205,81.445c-49.761,49.527-81.904,121.24-81.904,196.282c0,33.861,7.779,68.629,22.879,103.866
			c15.1,35.228,38.565,78.614,70.005,130.396c7.448,12.269,15.764,31.205,25.623,56.271c12.104,30.757,22.87,51.713,31.566,63.602
			c5.027,6.872,11.899,10.063,20.596,10.063h228.766c9.605,0,16.359-4.188,21.504-11.898c6.754-10.132,13.987-27.516,22.42-51.693
			c8.951-25.691,16.838-43.982,23.329-55.364c30.571-53.587,54.446-99.747,70.464-137.717
			c16.018-37.979,24.246-74.124,24.246-107.526C676.699,227.849,664.352,181.182,639.188,138.634z M603.492,371.071
			c-15.012,34.348-36.398,76.974-65.427,126.736c-9.41,16.125-18.458,37.003-26.989,63.592c-3.367,10.474-7.32,20.596-11.439,30.2
			H300.153c-6.862-11.439-12.26-25.837-18.761-42.089c-12.718-31.801-23.338-52.621-30.2-64.061
			c-28.824-48.043-49.868-87.39-64.051-118.957s-20.537-60.859-21.044-88.766c-2.235-121.718,106.13-228.991,229.674-226.941
			c41.631,0.693,80.527,10.063,115.765,30.659c35.227,20.586,63.134,48.043,83.729,82.812
			c20.586,34.768,31.108,72.748,31.108,113.47C626.372,305.175,618.681,336.322,603.492,371.071z"/>

</svg>
