<svg xmlns="http://www.w3.org/2000/svg" xmlns:xlink="http://www.w3.org/1999/xlink" viewBox="0 0 323.3 323.3"><defs><style></style><clipPath id="a"><path class="a" d="M164.4,30.45c0,7.8,3.51,18.46,8.52,28.33a10.15,10.15,0,0,1-9.12,14.67H73.53v90.27a10.15,10.15,0,0,1-14.67,9.12c-9.87-5-20.54-8.51-28.33-8.51-19,0-29.25,15-29.25,33.55s10.25,33.54,29.25,33.54c7.8,0,18.47-3.24,28.34-8a10.14,10.14,0,0,1,14.66,9V322H163.8a10.15,10.15,0,0,0,9.12-14.67c-5-9.87-8.52-20.53-8.52-28.33,0-19,15-29.25,33.55-29.25S231.5,260,231.5,279c0,7.8-3.24,18.47-8.05,28.34a10.14,10.14,0,0,0,9,14.66H322.1v-89.6a10.14,10.14,0,0,0-14.66-9c-9.87,4.8-20.54,8-28.34,8-19,0-29.25-15-29.25-33.54s10.25-33.55,29.25-33.55c7.79,0,18.46,3.5,28.33,8.51a10.15,10.15,0,0,0,14.67-9.12V73.45H232.49a10.14,10.14,0,0,1-9-14.66c4.81-9.87,8.05-20.54,8.05-28.34,0-19-15-29.25-33.55-29.25S164.4,11.45,164.4,30.45"/></clipPath></defs><title>puzzle</title></svg>